# xmcd
#
# Track frame offsets:
#	150
#	30840
#	52047
#	69767
#	85797
#	101350
#	115387
#	131005
#	144435
#	165197
#	182670
#	202092
#	224957
#	241902
#	261912
#	283025
#
# Disc length: 3854 seconds
#
# Revision: 0
# Processed by: cddbd v1.5.2PL0 Copyright (c) Steve Scherf et al.
# Submitted via: EasyCDDAExtractor 10.0.1.1
#
DISCID=e50f0c10
DTITLE=Eric Clapton - Alternative Tracks Disc 2
DYEAR=1900
DGENRE=
TTITLE0=Mainline Florida
TTITLE1=Let It Grow
TTITLE2=I Cant Hold Out
TTITLE3=Instrumental Jam
TTITLE4=Instrumetnal Jam 2
TTITLE5=Please Be with Me
TTITLE6=Hello Old Friend
TTITLE7=Sig Language
TTITLE8=Black Summer Rain
TTITLE9=Carnival
TTITLE10=Untitled Song
TTITLE11=Last Night
TTITLE12=Beautiful Thing
TTITLE13=Hungry
TTITLE14=All Our Past Time
TTITLE15=Country Jail Blues
EXTD=
EXTT0=
EXTT1=
EXTT2=
EXTT3=
EXTT4=
EXTT5=
EXTT6=
EXTT7=
EXTT8=
EXTT9=
EXTT10=
EXTT11=
EXTT12=
EXTT13=
EXTT14=
EXTT15=
PLAYORDER=
